<?xml version="1.0" encoding="UTF-8"?>
<svg width="286px" height="85px" viewBox="0 0 286 85" version="1.1" xmlns="http://www.w3.org/2000/svg" xmlns:xlink="http://www.w3.org/1999/xlink">
    <!-- Generator: Sketch 47.1 (45422) - http://www.bohemiancoding.com/sketch -->
    <title>Download_on_the_App_Store_Badge</title>
    <desc>Created with Sketch.</desc>
    <defs></defs>
    <g id="Page-1" stroke="none" stroke-width="1" fill="none" fill-rule="evenodd">
        <g id="Download_on_the_App_Store_Badge" fill-rule="nonzero">
            <path d="M275.824756,85 L10.0184741,85 C4.4954963,85 0,80.478 0,74.942375 L0,10.04275 C0,4.505 4.4954963,0 10.0184741,0 L275.824756,0 C281.345615,0 286,4.505 286,10.04275 L286,74.942375 C286,80.478 281.345615,85 275.824756,85 L275.824756,85 Z" id="Shape" fill="#A6A6A6"></path>
            <path d="M284,74.8804962 C284,79.3663631 280.36968,83 275.879437,83 L10.1311532,83 C5.64302774,83 2,79.3663631 2,74.8804962 L2,10.1301036 C2,5.64635678 5.64302774,2 10.1311532,2 L275.877319,2 C280.36968,2 283.997882,5.64635678 283.997882,10.1301036 L284,74.8804962 L284,74.8804962 Z" id="Shape" fill="#000000"></path>
            <g id="Group" transform="translate(26.000000, 13.000000)" fill="#FFFFFF">
                <path d="M37.728,29.1584615 C37.6660455,22.3405769 43.3658636,19.0236538 43.6265,18.8692308 C40.3984545,14.2090385 35.3950909,13.5723077 33.6368636,13.5215385 C29.4346364,13.0836538 25.3584545,16.0113462 23.2178182,16.0113462 C21.0344545,16.0113462 17.7380455,13.5638462 14.1852727,13.6357692 C9.61345455,13.7055769 5.33645455,16.3265385 2.99072727,20.3965385 C-1.85027273,28.6951923 1.76018182,40.8903846 6.39822727,47.5982692 C8.71831818,50.8834615 11.4293636,54.5515385 14.9778636,54.4225 C18.4494545,54.2807692 19.7462273,52.2309615 23.9356364,52.2309615 C28.0865909,52.2309615 29.3043182,54.4225 32.9233182,54.34 C36.6491364,54.2807692 38.9948636,51.04 41.2337727,47.7251923 C43.9149091,43.9598077 44.9916364,40.2515385 45.0343636,40.0611538 C44.9467727,40.0315385 37.7985,37.3301923 37.728,29.1584615 Z" id="Shape"></path>
                <path d="M30.8916364,9.10884615 C32.7588182,6.79673077 34.0363636,3.65115385 33.6817273,0.459038462 C30.9792273,0.5775 27.5995,2.31 25.6532727,4.57134615 C23.9313636,6.56403846 22.3931818,9.83019231 22.7905455,12.9017308 C25.8263182,13.1259615 28.9432727,11.385 30.8916364,9.10884615 Z" id="Shape"></path>
            </g>
            <g id="Group" transform="translate(89.000000, 38.000000)" fill="#FFFFFF">
                <path d="M24.7276543,28.5084444 L19.905284,28.5084444 L17.2637037,20.2561111 L8.08187654,20.2561111 L5.56558025,28.5084444 L0.870617284,28.5084444 L9.96750617,0.413777778 L15.5861728,0.413777778 L24.7276543,28.5084444 Z M16.4674074,16.7938889 L14.0785185,9.45777778 C13.8258272,8.70833333 13.3522963,6.94344444 12.653679,4.16522222 L12.5687407,4.16522222 C12.2905679,5.36011111 11.8425185,7.125 11.226716,9.45777778 L8.8802963,16.7938889 L16.4674074,16.7938889 L16.4674074,16.7938889 Z" id="Shape"></path>
                <path d="M48.1217778,18.1302222 C48.1217778,21.5755556 47.1853333,24.2988889 45.3124444,26.2981111 C43.6349136,28.0777778 41.5518025,28.9665556 39.0652346,28.9665556 C36.3811852,28.9665556 34.4530864,28.0081111 33.2788148,26.0912222 L33.1938765,26.0912222 L33.1938765,36.7628889 L28.6666667,36.7628889 L28.6666667,14.9192222 C28.6666667,12.7532222 28.6093333,10.5302222 28.4989136,8.25022222 L32.4803951,8.25022222 L32.7330864,11.4612222 L32.8180247,11.4612222 C34.3278025,9.04188889 36.6190123,7.83433333 39.6937778,7.83433333 C42.0975309,7.83433333 44.1041975,8.778 45.7095309,10.6674444 C47.3191111,12.559 48.1217778,15.0458889 48.1217778,18.1302222 Z M43.5096296,18.2948889 C43.5096296,16.3231111 43.0637037,14.6975556 42.1676049,13.4182222 C41.1886914,12.084 39.8742716,11.4168889 38.2264691,11.4168889 C37.1095309,11.4168889 36.0945185,11.7884444 35.1878025,12.521 C34.278963,13.2598889 33.6843951,14.2246667 33.4062222,15.4195556 C33.2660741,15.9768889 33.196,16.4328889 33.196,16.7917778 L33.196,20.1695556 C33.196,21.6431111 33.6504198,22.8865556 34.5592593,23.902 C35.4680988,24.9174444 36.6487407,25.4241111 38.1011852,25.4241111 C39.806321,25.4241111 41.1334815,24.7696667 42.0826667,23.465 C43.0339753,22.1582222 43.5096296,20.4355556 43.5096296,18.2948889 Z" id="Shape"></path>
                <path d="M71.5583704,18.1302222 C71.5583704,21.5755556 70.6219259,24.2988889 68.7469136,26.2981111 C67.0715062,28.0777778 64.9883951,28.9665556 62.5018272,28.9665556 C59.8177778,28.9665556 57.889679,28.0081111 56.7175309,26.0912222 L56.6325926,26.0912222 L56.6325926,36.7628889 L52.1053827,36.7628889 L52.1053827,14.9192222 C52.1053827,12.7532222 52.0480494,10.5302222 51.9376296,8.25022222 L55.9191111,8.25022222 L56.1718025,11.4612222 L56.2567407,11.4612222 C57.7643951,9.04188889 60.0556049,7.83433333 63.1324938,7.83433333 C65.5341235,7.83433333 67.5407901,8.778 69.1503704,10.6674444 C70.7535802,12.559 71.5583704,15.0458889 71.5583704,18.1302222 Z M66.9462222,18.2948889 C66.9462222,16.3231111 66.4981728,14.6975556 65.6020741,13.4182222 C64.6231605,12.084 63.3129877,11.4168889 61.6630617,11.4168889 C60.544,11.4168889 59.5311111,11.7884444 58.6222716,12.521 C57.7134321,13.2598889 57.1209877,14.2246667 56.8428148,15.4195556 C56.7047901,15.9768889 56.6325926,16.4328889 56.6325926,16.7917778 L56.6325926,20.1695556 C56.6325926,21.6431111 57.0870123,22.8865556 57.9916049,23.902 C58.9004444,24.9153333 60.0810864,25.4241111 61.5377778,25.4241111 C63.2429136,25.4241111 64.5700741,24.7696667 65.5192593,23.465 C66.4705679,22.1582222 66.9462222,20.4355556 66.9462222,18.2948889 Z" id="Shape"></path>
                <path d="M97.7618272,20.6297778 C97.7618272,23.0195556 96.9273086,24.9638889 95.2519012,26.4648889 C93.4108642,28.1052222 90.8478519,28.9243333 87.5543704,28.9243333 C84.5135802,28.9243333 82.0758519,28.3416667 80.2305679,27.1742222 L81.2795556,23.4227778 C83.2671111,24.6176667 85.4479012,25.2172222 87.8240494,25.2172222 C89.5291852,25.2172222 90.8563457,24.833 91.8097778,24.0687778 C92.758963,23.3045556 93.2324938,22.2785556 93.2324938,20.9992222 C93.2324938,19.8592222 92.8417778,18.8986667 92.0582222,18.1196667 C91.2789136,17.3406667 89.9772346,16.6165556 88.1595556,15.9473333 C83.2119012,14.1127778 80.7401975,11.4253333 80.7401975,7.89133333 C80.7401975,5.58177778 81.6065679,3.68811111 83.3414321,2.21455556 C85.0699259,0.738888889 87.376,0.00211111111 90.2596543,0.00211111111 C92.8311605,0.00211111111 94.967358,0.447555556 96.6724938,1.33633333 L95.5406914,5.00544444 C93.9480988,4.14411111 92.1474074,3.71344444 90.1322469,3.71344444 C88.5396543,3.71344444 87.2953086,4.104 86.4034568,4.88088889 C85.6496296,5.57544444 85.2716543,6.422 85.2716543,7.42477778 C85.2716543,8.53522222 85.702716,9.45355556 86.5690864,10.1755556 C87.3229136,10.8426667 88.6925432,11.5646667 90.6800988,12.3436667 C93.1114568,13.3168889 94.897284,14.4547778 96.0460741,15.7594444 C97.1906173,17.0598889 97.7618272,18.6875556 97.7618272,20.6297778 Z" id="Shape"></path>
                <path d="M112.730074,11.628 L107.739951,11.628 L107.739951,21.4636667 C107.739951,23.9653333 108.619062,25.2151111 110.381531,25.2151111 C111.190568,25.2151111 111.86158,25.1454444 112.392444,25.0061111 L112.517728,28.424 C111.625877,28.7554444 110.451605,28.9222222 108.997037,28.9222222 C107.209086,28.9222222 105.811852,28.3796667 104.80321,27.2966667 C103.798815,26.2115556 103.293432,24.3917778 103.293432,21.8352222 L103.293432,11.6237778 L100.320593,11.6237778 L100.320593,8.246 L103.293432,8.246 L103.293432,4.53677778 L107.739951,3.20255556 L107.739951,8.246 L112.730074,8.246 L112.730074,11.628 Z" id="Shape"></path>
                <path d="M135.245086,18.2125556 C135.245086,21.3264444 134.348988,23.883 132.561037,25.8822222 C130.686025,27.9405556 128.197333,28.9665556 125.094963,28.9665556 C122.105136,28.9665556 119.724741,27.9806667 117.949531,26.0088889 C116.174321,24.0371111 115.286716,21.5481111 115.286716,18.5482222 C115.286716,15.409 116.199802,12.8376667 118.032346,10.8384444 C119.860642,8.83711111 122.328099,7.83644444 125.430469,7.83644444 C128.420296,7.83644444 130.826173,8.82233333 132.641728,10.7962222 C134.378716,12.711 135.245086,15.1831111 135.245086,18.2125556 Z M130.548,18.3582222 C130.548,16.4898889 130.146667,14.8875556 129.333383,13.5512222 C128.384198,11.9341111 127.027309,11.1276667 125.269086,11.1276667 C123.449284,11.1276667 122.066914,11.9362222 121.117728,13.5512222 C120.304444,14.8896667 119.903111,16.5173333 119.903111,18.4426667 C119.903111,20.311 120.304444,21.9133333 121.117728,23.2475556 C122.096642,24.8646667 123.464148,25.6711111 125.228741,25.6711111 C126.957235,25.6711111 128.314123,24.8477778 129.293037,23.2053333 C130.127556,21.8436667 130.548,20.2244444 130.548,18.3582222 Z" id="Shape"></path>
                <path d="M149.960642,12.2085556 C149.512593,12.1262222 149.034815,12.084 148.533679,12.084 C146.941086,12.084 145.709481,12.6814444 144.843111,13.8784444 C144.089284,14.934 143.711309,16.2682222 143.711309,17.879 L143.711309,28.5084444 L139.186222,28.5084444 L139.228691,14.63 C139.228691,12.2951111 139.171358,10.1692222 139.058815,8.25233333 L143.002074,8.25233333 L143.167704,12.1283333 L143.292988,12.1283333 C143.770765,10.7962222 144.524593,9.72377778 145.556593,8.91944444 C146.565235,8.19533333 147.654568,7.83433333 148.82884,7.83433333 C149.24716,7.83433333 149.625136,7.86388889 149.960642,7.91666667 L149.960642,12.2085556 Z" id="Shape"></path>
                <path d="M170.207802,17.4208889 C170.207802,18.2273333 170.154716,18.9071111 170.042173,19.4623333 L156.460543,19.4623333 C156.51363,21.4636667 157.169778,22.9942222 158.431111,24.0497778 C159.575654,24.9934444 161.055704,25.4663333 162.873383,25.4663333 C164.884296,25.4663333 166.718963,25.1475556 168.368889,24.5078889 L169.078123,27.6323333 C167.150025,28.4683333 164.873679,28.8842222 162.246963,28.8842222 C159.087259,28.8842222 156.607062,27.9595556 154.802123,26.1123333 C153.001432,24.2651111 152.098963,21.7845556 152.098963,18.6727778 C152.098963,15.618 152.937728,13.0741111 154.617383,11.0453333 C156.375605,8.87933333 158.751753,7.79633333 161.74158,7.79633333 C164.678321,7.79633333 166.90158,8.87933333 168.411358,11.0453333 C169.606864,12.7658889 170.207802,14.8938889 170.207802,17.4208889 Z M165.890815,16.2534444 C165.920543,14.9192222 165.625383,13.7665556 165.011704,12.7933333 C164.228148,11.5414444 163.024148,10.9165556 161.403951,10.9165556 C159.923901,10.9165556 158.719901,11.5266667 157.800444,12.7511111 C157.046617,13.7243333 156.598568,14.8917778 156.460543,16.2513333 L165.890815,16.2513333 L165.890815,16.2534444 Z" id="Shape"></path>
            </g>
            <g id="Group" transform="translate(92.000000, 14.000000)" fill="#FFFFFF">
                <path d="M11.7892405,7.519125 C11.7892405,10.02025 11.0430253,11.903 9.55270886,13.167375 C8.17231646,14.334 6.21059494,14.918375 3.66965823,14.918375 C2.40975949,14.918375 1.33165823,14.863125 0.429012658,14.752625 L0.429012658,1.08675 C1.60646835,0.8955 2.87482278,0.79775 4.24464557,0.79775 C6.66508861,0.79775 8.48940506,1.326875 9.71970886,2.385125 C11.0979873,3.5815 11.7892405,5.292125 11.7892405,7.519125 Z M9.45335443,7.58075 C9.45335443,5.959375 9.02634177,4.71625 8.17231646,3.84925 C7.31829114,2.984375 6.07107595,2.550875 4.42855696,2.550875 C3.73096203,2.550875 3.13694937,2.597625 2.64440506,2.695375 L2.64440506,13.0845 C2.91710127,13.127 3.41598734,13.146125 4.14106329,13.146125 C5.83643038,13.146125 7.14494937,12.67225 8.06662025,11.7245 C8.98829114,10.77675 9.45335443,9.3955 9.45335443,7.58075 Z" id="Shape"></path>
                <path d="M24.1747215,9.703625 C24.1747215,11.24425 23.7371392,12.5065 22.8619747,13.49675 C21.9445316,14.514625 20.7290253,15.0225 19.2112278,15.0225 C17.7483924,15.0225 16.5836203,14.535875 15.7147975,13.558375 C14.8480886,12.583 14.4147342,11.352625 14.4147342,9.869375 C14.4147342,8.318125 14.8607722,7.04525 15.7570759,6.057125 C16.6533797,5.069 17.8583165,4.573875 19.3761139,4.573875 C20.8389494,4.573875 22.0142911,5.0605 22.9042532,6.035875 C23.7498228,6.983625 24.1747215,8.207625 24.1747215,9.703625 Z M21.8768861,9.775875 C21.8768861,8.8515 21.6781772,8.058875 21.2828734,7.398 C20.8178101,6.599 20.1561519,6.1995 19.2957848,6.1995 C18.4058228,6.1995 17.7293671,6.599 17.2643038,7.398 C16.8668861,8.058875 16.6702911,8.86425 16.6702911,9.81625 C16.6702911,10.740625 16.869,11.53325 17.2643038,12.194125 C17.7441646,12.993125 18.4121646,13.392625 19.2746456,13.392625 C20.1202152,13.392625 20.7839873,12.98675 21.2617342,12.172875 C21.6718354,11.49925 21.8768861,10.70025 21.8768861,9.775875 Z" id="Shape"></path>
                <path d="M40.7817089,4.777875 L37.6636709,14.795125 L35.6343038,14.795125 L34.3426962,10.44525 C34.015038,9.359375 33.7486835,8.279875 33.541519,7.208875 L33.5013544,7.208875 C33.3089873,8.309625 33.0426329,9.387 32.7001772,10.44525 L31.3282405,14.795125 L29.2756203,14.795125 L26.3436076,4.777875 L28.6203038,4.777875 L29.7470253,9.54 C30.0197215,10.66625 30.2437975,11.739375 30.423481,12.755125 L30.4636456,12.755125 C30.6285316,11.917875 30.9012278,10.851125 31.285962,9.56125 L32.7001772,4.78 L34.5054684,4.78 L35.8604937,9.45925 C36.1881519,10.600375 36.4545063,11.699 36.659557,12.75725 L36.7208608,12.75725 C36.8709494,11.726625 37.0971392,10.628 37.3973165,9.45925 L38.606481,4.78 L40.7817089,4.78 L40.7817089,4.777875 Z" id="Shape"></path>
                <path d="M52.2666582,14.795125 L50.0512658,14.795125 L50.0512658,9.057625 C50.0512658,7.289625 49.3832658,6.405625 48.043038,6.405625 C47.3856076,6.405625 46.8550127,6.647875 46.4427975,7.1345 C46.0348101,7.621125 45.8276456,8.194875 45.8276456,8.8515 L45.8276456,14.793 L43.6122532,14.793 L43.6122532,7.64025 C43.6122532,6.7605 43.5847722,5.806375 43.5319241,4.773625 L45.4788481,4.773625 L45.5824304,6.33975 L45.6437342,6.33975 C45.9016329,5.853125 46.2863671,5.4515 46.7915949,5.130625 C47.3919494,4.756625 48.0641772,4.5675 48.7998228,4.5675 C49.7299494,4.5675 50.5036456,4.86925 51.1187975,5.474875 C51.884038,6.2165 52.2666582,7.323625 52.2666582,8.794125 L52.2666582,14.795125 L52.2666582,14.795125 Z" id="Shape"></path>
                <polygon id="Shape" points="58.3758987 14.795125 56.1626203 14.795125 56.1626203 0.1815 58.3758987 0.1815"></polygon>
                <path d="M71.4188101,9.703625 C71.4188101,11.24425 70.9812278,12.5065 70.1060633,13.49675 C69.1886203,14.514625 67.971,15.0225 66.4553165,15.0225 C64.9903671,15.0225 63.8255949,14.535875 62.9588861,13.558375 C62.0921772,12.583 61.6588228,11.352625 61.6588228,9.869375 C61.6588228,8.318125 62.1048608,7.04525 63.0011646,6.057125 C63.8974684,5.069 65.1024051,4.573875 66.6180886,4.573875 C68.083038,4.573875 69.2562658,5.0605 70.1483418,6.035875 C70.9939114,6.983625 71.4188101,8.207625 71.4188101,9.703625 Z M69.1188608,9.775875 C69.1188608,8.8515 68.9201519,8.058875 68.5248481,7.398 C68.0618987,6.599 67.3981266,6.1995 66.5398734,6.1995 C65.6477975,6.1995 64.9713418,6.599 64.5083924,7.398 C64.1109747,8.058875 63.9143797,8.86425 63.9143797,9.81625 C63.9143797,10.740625 64.1130886,11.53325 64.5083924,12.194125 C64.9882532,12.993125 65.6562532,13.392625 66.5187342,13.392625 C67.3643038,13.392625 68.025962,12.98675 68.5037089,12.172875 C68.9159241,11.49925 69.1188608,10.70025 69.1188608,9.775875 Z" id="Shape"></path>
                <path d="M82.1406329,14.795125 L80.1514304,14.795125 L79.9865443,13.64125 L79.9252405,13.64125 C79.244557,14.561375 78.2742658,15.0225 77.0143671,15.0225 C76.0736709,15.0225 75.3126582,14.718625 74.7397848,14.115125 C74.2197595,13.566875 73.9597468,12.88475 73.9597468,12.075125 C73.9597468,10.851125 74.4670886,9.91825 75.4881139,9.27225 C76.5070253,8.62625 77.9402658,8.309625 79.7857215,8.3245 L79.7857215,8.1375 C79.7857215,6.817875 79.0965823,6.159125 77.7161899,6.159125 C76.7332152,6.159125 75.8665063,6.40775 75.1181772,6.90075 L74.6679114,5.43875 C75.5938101,4.862875 76.737443,4.573875 78.0861266,4.573875 C80.690481,4.573875 81.9968861,5.955125 81.9968861,8.717625 L81.9968861,12.406625 C81.9968861,13.4075 82.0455063,14.204375 82.1406329,14.795125 Z M79.8406835,11.352625 L79.8406835,9.80775 C77.3969873,9.76525 76.1751392,10.438875 76.1751392,11.8265 C76.1751392,12.34925 76.3146582,12.74025 76.600038,13.001625 C76.8854177,13.263 77.2490127,13.392625 77.6823671,13.392625 C78.1685696,13.392625 78.6230633,13.2375 79.0373924,12.929375 C79.4538354,12.619125 79.7096203,12.226 79.8047468,11.743625 C79.828,11.63525 79.8406835,11.5035 79.8406835,11.352625 Z" id="Shape"></path>
                <path d="M94.7290506,14.795125 L92.7631013,14.795125 L92.659519,13.1865 L92.5982152,13.1865 C91.9703797,14.4105 90.9007342,15.0225 89.3977342,15.0225 C88.1970253,15.0225 87.1971392,14.548625 86.4044177,13.600875 C85.6116962,12.653125 85.2163924,11.42275 85.2163924,9.911875 C85.2163924,8.2905 85.645519,6.97725 86.508,5.97425 C87.343,5.03925 88.3661392,4.57175 89.5837595,4.57175 C90.9218734,4.57175 91.8583418,5.024375 92.3910506,5.93175 L92.4333291,5.93175 L92.4333291,0.1815 L94.6508354,0.1815 L94.6508354,12.096375 C94.6508354,13.07175 94.6762025,13.970625 94.7290506,14.795125 Z M92.4333291,10.570625 L92.4333291,8.900375 C92.4333291,8.611375 92.4121899,8.377625 92.3720253,8.199125 C92.2473038,7.663625 91.9788354,7.213125 91.5708481,6.84975 C91.1586329,6.486375 90.6618608,6.303625 90.0889873,6.303625 C89.262443,6.303625 88.6155823,6.633 88.1399494,7.293875 C87.6685443,7.95475 87.4296709,8.798375 87.4296709,9.829 C87.4296709,10.81925 87.6558608,11.6225 88.1103544,12.240875 C88.5902152,12.899625 89.2370759,13.229 90.0467089,13.229 C90.7738987,13.229 91.3552278,12.954875 91.797038,12.4045 C92.2240506,11.896625 92.4333291,11.284625 92.4333291,10.570625 Z" id="Shape"></path>
                <path d="M113.676152,9.703625 C113.676152,11.24425 113.23857,12.5065 112.363405,13.49675 C111.445962,14.514625 110.23257,15.0225 108.712658,15.0225 C107.251937,15.0225 106.087165,14.535875 105.216228,13.558375 C104.349519,12.583 103.916165,11.352625 103.916165,9.869375 C103.916165,8.318125 104.362203,7.04525 105.258506,6.057125 C106.15481,5.069 107.359747,4.573875 108.879658,4.573875 C110.34038,4.573875 111.517835,5.0605 112.405684,6.035875 C113.251253,6.983625 113.676152,8.207625 113.676152,9.703625 Z M111.38043,9.775875 C111.38043,8.8515 111.181722,8.058875 110.786418,7.398 C110.319241,6.599 109.659696,6.1995 108.797215,6.1995 C107.909367,6.1995 107.232911,6.599 106.765734,7.398 C106.368316,8.058875 106.171722,8.86425 106.171722,9.81625 C106.171722,10.740625 106.37043,11.53325 106.765734,12.194125 C107.245595,12.993125 107.913595,13.392625 108.776076,13.392625 C109.621646,13.392625 110.287532,12.98675 110.765278,12.172875 C111.173266,11.49925 111.38043,10.70025 111.38043,9.775875 Z" id="Shape"></path>
                <path d="M125.588114,14.795125 L123.374835,14.795125 L123.374835,9.057625 C123.374835,7.289625 122.706835,6.405625 121.364494,6.405625 C120.707063,6.405625 120.176468,6.647875 119.766367,7.1345 C119.356266,7.621125 119.151215,8.194875 119.151215,8.8515 L119.151215,14.793 L116.933709,14.793 L116.933709,7.64025 C116.933709,6.7605 116.908342,5.806375 116.855494,4.773625 L118.800304,4.773625 L118.903886,6.33975 L118.96519,6.33975 C119.225203,5.853125 119.609937,5.4515 120.113051,5.130625 C120.715519,4.756625 121.385633,4.5675 122.123392,4.5675 C123.051405,4.5675 123.825101,4.86925 124.440253,5.474875 C125.207608,6.2165 125.588114,7.323625 125.588114,8.794125 L125.588114,14.795125 L125.588114,14.795125 Z" id="Shape"></path>
                <path d="M140.49762,6.446 L138.058152,6.446 L138.058152,11.31225 C138.058152,12.549 138.491506,13.167375 139.349759,13.167375 C139.747177,13.167375 140.076949,13.133375 140.336962,13.06325 L140.394038,14.752625 C139.956456,14.918375 139.381468,15.00125 138.673304,15.00125 C137.798139,15.00125 137.117456,14.7335 136.624911,14.198 C136.130253,13.6625 135.885038,12.7615 135.885038,11.497125 L135.885038,6.446 L134.428544,6.446 L134.428544,4.777875 L135.885038,4.777875 L135.885038,2.941875 L138.056038,2.283125 L138.056038,4.77575 L140.495506,4.77575 L140.495506,6.446 L140.49762,6.446 Z" id="Shape"></path>
                <path d="M152.225671,14.795125 L150.008165,14.795125 L150.008165,9.100125 C150.008165,7.3045 149.340165,6.405625 148.002051,6.405625 C146.974684,6.405625 146.272861,6.92625 145.888127,7.9675 C145.822595,8.186375 145.784544,8.454125 145.784544,8.768625 L145.784544,14.793 L143.571266,14.793 L143.571266,0.1815 L145.784544,0.1815 L145.784544,6.218625 L145.826823,6.218625 C146.524418,5.12 147.524304,4.57175 148.820139,4.57175 C149.737582,4.57175 150.496481,4.8735 151.098949,5.479125 C151.849392,6.2335 152.225671,7.3555 152.225671,8.83875 L152.225671,14.795125 L152.225671,14.795125 Z" id="Shape"></path>
                <path d="M164.323658,9.312625 C164.323658,9.712125 164.294063,10.047875 164.241215,10.322 L157.597152,10.322 C157.626747,11.31225 157.943835,12.066625 158.558987,12.589375 C159.121291,13.056875 159.846367,13.290625 160.734215,13.290625 C161.71719,13.290625 162.613494,13.133375 163.421013,12.81675 L163.767696,14.36375 C162.822772,14.776 161.710848,14.982125 160.423468,14.982125 C158.880304,14.982125 157.664797,14.52525 156.785405,13.6115 C155.901785,12.69775 155.464203,11.471625 155.464203,9.933125 C155.464203,8.42225 155.87219,7.16425 156.694506,6.16125 C157.552759,5.09025 158.713304,4.55475 160.178253,4.55475 C161.611494,4.55475 162.700165,5.09025 163.43581,6.16125 C164.029823,7.01125 164.323658,8.063125 164.323658,9.312625 Z M162.209734,8.73675 C162.226646,8.075875 162.080785,7.506375 161.780608,7.026125 C161.395873,6.40775 160.810316,6.0975 160.017595,6.0975 C159.294633,6.0975 158.704848,6.39925 158.254582,7.004875 C157.886759,7.48725 157.669025,8.063125 157.597152,8.73675 L162.209734,8.73675 Z" id="Shape"></path>
            </g>
        </g>
    </g>
</svg>