<?xml version="1.0" encoding="UTF-8"?>
<svg width="286px" height="85px" viewBox="0 0 286 85" version="1.1" xmlns="http://www.w3.org/2000/svg" xmlns:xlink="http://www.w3.org/1999/xlink">
    <!-- Generator: Sketch 47.1 (45422) - http://www.bohemiancoding.com/sketch -->
    <title>en_get</title>
    <desc>Created with Sketch.</desc>
    <defs>
        <linearGradient x1="91.488428%" y1="4.9481245%" x2="-38.3517333%" y2="71.9074222%" id="linearGradient-1">
            <stop stop-color="#00A0FF" offset="0%"></stop>
            <stop stop-color="#00A1FF" offset="1%"></stop>
            <stop stop-color="#00BEFF" offset="26%"></stop>
            <stop stop-color="#00D2FF" offset="51%"></stop>
            <stop stop-color="#00DFFF" offset="76%"></stop>
            <stop stop-color="#00E3FF" offset="100%"></stop>
        </linearGradient>
        <linearGradient x1="107.684729%" y1="50%" x2="-130.640394%" y2="50%" id="linearGradient-2">
            <stop stop-color="#FFE000" offset="0%"></stop>
            <stop stop-color="#FFBD00" offset="41%"></stop>
            <stop stop-color="#FFA500" offset="78%"></stop>
            <stop stop-color="#FF9C00" offset="100%"></stop>
        </linearGradient>
        <linearGradient x1="86.219293%" y1="17.8768889%" x2="-50.1497903%" y2="194.702638%" id="linearGradient-3">
            <stop stop-color="#FF3A44" offset="0%"></stop>
            <stop stop-color="#C31162" offset="100%"></stop>
        </linearGradient>
        <linearGradient x1="-18.7537448%" y1="-54.0521474%" x2="42.1210306%" y2="24.9170664%" id="linearGradient-4">
            <stop stop-color="#32A071" offset="0%"></stop>
            <stop stop-color="#2DA771" offset="7%"></stop>
            <stop stop-color="#15CF74" offset="48%"></stop>
            <stop stop-color="#06E775" offset="80%"></stop>
            <stop stop-color="#00F076" offset="100%"></stop>
        </linearGradient>
    </defs>
    <g id="Page-1" stroke="none" stroke-width="1" fill="none" fill-rule="evenodd">
        <g id="en_get" fill-rule="nonzero">
            <rect id="Rectangle-path" fill="#000000" x="0" y="0" width="286" height="85" rx="11"></rect>
            <path d="M275.407407,1.7 C280.321514,1.7 284.305185,5.69585861 284.305185,10.625 L284.305185,74.375 C284.305185,79.3041414 280.321514,83.3 275.407407,83.3 L10.5925926,83.3 C5.67848562,83.3 1.69481481,79.3041414 1.69481481,74.375 L1.69481481,10.625 C1.69481481,5.69585861 5.67848562,1.7 10.5925926,1.7 L275.407407,1.7 L275.407407,1.7 Z M275.407407,0 L10.5925926,0 C4.74246524,3.77475828e-15 0,4.75697453 0,10.625 L0,74.375 C0,80.2430255 4.74246524,85 10.5925926,85 L275.407407,85 C281.257535,85 286,80.2430255 286,74.375 L286,10.625 C286,4.75697453 281.257535,3.77475828e-15 275.407407,0 Z" id="Shape" fill="#A6A6A6"></path>
            <path d="M100.818223,22.0116099 C100.890704,23.5465401 100.318755,25.043502 99.2358406,26.15318 C98.0257392,27.3869604 96.3379361,28.0571132 94.5941844,27.9961787 C91.9196204,27.975634 89.518213,26.3834848 88.5003054,23.9558963 C87.4823979,21.5283077 88.0463592,18.7383665 89.9314297,16.876063 C91.1562636,15.6487625 92.8442354,14.9740789 94.5941844,15.0123564 C95.4861369,15.0094396 96.3692717,15.1856155 97.1892922,15.5300527 C97.9527486,15.8322912 98.6323917,16.3077496 99.1725453,16.9174787 L98.0543281,18.0149948 C97.2005731,17.0182772 95.9189233,16.4736885 94.5941844,16.5447374 C93.2625551,16.538326 91.985741,17.064686 91.0581623,18.002444 C90.1305836,18.9402021 89.6323136,20.2084063 89.6782484,21.5146215 C89.6499806,23.4884725 90.8343933,25.2851887 92.6804153,26.0688127 C94.5264374,26.8524367 96.6715208,26.4690693 98.1176234,25.0970797 C98.7668424,24.4065487 99.1412837,23.5098256 99.1725453,22.5707219 L94.5941844,22.5707219 L94.5941844,21.0797566 L100.73383,21.0797566 C100.790106,21.3872975 100.818349,21.6991484 100.818223,22.0116099 L100.818223,22.0116099 Z M110.481308,16.8346473 L104.78473,16.8346473 L104.78473,20.7691389 L109.974945,20.7691389 L109.974945,22.2601041 L104.78473,22.2601041 L104.78473,26.1945957 L110.481308,26.1945957 L110.481308,27.7269767 L103.096855,27.7269767 L103.096855,15.3022664 L110.481308,15.3022664 L110.481308,16.8346473 Z M117.401595,27.7269767 L115.777016,27.7269767 L115.777016,16.8346473 L112.232478,16.8346473 L112.232478,15.3022664 L121.030527,15.3022664 L121.030527,16.8346473 L117.401595,16.8346473 L117.401595,27.7269767 Z M127.233467,27.7269767 L127.233467,15.3022664 L128.858047,15.3022664 L128.858047,27.7269767 L127.233467,27.7269767 Z M136.073712,27.7269767 L134.449133,27.7269767 L134.449133,16.8346473 L130.904595,16.8346473 L130.904595,15.3022664 L139.597152,15.3022664 L139.597152,16.8346473 L136.073712,16.8346473 L136.073712,27.7269767 Z M156.075031,26.1117643 C153.50733,28.6178861 149.35942,28.6178861 146.791719,26.1117643 C144.302671,23.5258381 144.302671,19.4826971 146.791719,16.8967708 C148.019645,15.6827663 149.690466,15 151.433375,15 C153.176284,15 154.847105,15.6827663 156.075031,16.8967708 C158.574701,19.4785425 158.574701,23.5299927 156.075031,26.1117643 L156.075031,26.1117643 Z M147.99433,25.0763718 C149.895982,26.9350361 152.970768,26.9350361 154.87242,25.0763718 C156.74005,23.05564 156.74005,19.973603 154.87242,17.9528712 C152.970768,16.0942069 149.895982,16.0942069 147.99433,17.9528712 C146.1267,19.973603 146.1267,23.05564 147.99433,25.0763718 L147.99433,25.0763718 Z M160.231423,27.7269767 L160.231423,15.3022664 L162.214677,15.3022664 L168.37542,24.9728325 L168.37542,15.3022664 L170,15.3022664 L170,27.7269767 L168.312125,27.7269767 L161.877102,17.6008378 L161.877102,27.7269767 L160.231423,27.7269767 Z" id="Shape" stroke="#FFFFFF" stroke-width="0.2" fill="#FFFFFF"></path>
            <path d="M144.456993,47.3460618 C139.516516,47.3700685 135.52812,51.5207642 135.543602,56.622166 C135.559083,61.7235678 139.572593,65.8483723 144.513118,65.8404077 C149.453644,65.8324431 153.45466,61.6947184 153.454715,56.5932916 C153.489427,54.1223747 152.551217,51.74276 150.854974,49.9994807 C149.158732,48.2562015 146.849789,47.2986195 144.456993,47.3460618 L144.456993,47.3460618 Z M144.456993,62.206904 C142.230167,62.3677084 140.134446,61.1066218 139.172192,59.0268079 C138.209938,56.9469941 138.57673,54.4711781 140.097134,52.7835156 C141.617539,51.0958531 143.982532,50.5393639 146.060964,51.3802105 C148.139396,52.2210572 149.508822,54.2883366 149.514261,56.5932916 C149.582835,58.0351455 149.084462,59.4444688 148.132236,60.5014473 C147.180011,61.5584259 145.854678,62.173432 144.456993,62.206904 L144.456993,62.206904 Z M124.839007,47.3460618 C119.895737,47.3580718 115.896762,51.5035007 115.904511,56.6077629 C115.912261,61.7120251 119.923805,65.8444868 124.867087,65.8404929 C129.810369,65.836499 133.815644,61.6975601 133.815658,56.5932916 C133.85037,54.1223747 132.912159,51.74276 131.215917,49.9994807 C129.519674,48.2562015 127.210732,47.2986195 124.817935,47.3460618 L124.839007,47.3460618 Z M124.839007,62.206904 C122.611019,62.3767768 120.509188,61.1219783 119.540153,59.0434737 C118.571117,56.9649691 118.932166,54.4859274 120.45038,52.7936449 C121.968595,51.1013624 124.334877,50.540376 126.415935,51.379361 C128.496993,52.218346 129.869138,54.2864909 129.875203,56.5932916 C129.943777,58.0351455 129.445404,59.4444688 128.493179,60.5014473 C127.540954,61.5584259 126.215621,62.173432 124.817935,62.206904 L124.839007,62.206904 Z M101.470215,50.1963844 L101.470215,54.1128582 L110.573297,54.1128582 C110.430563,55.9575256 109.687948,57.6981603 108.466102,59.0519668 C106.624462,60.9889342 104.075852,62.0320944 101.449143,61.9240476 C95.8630387,61.9240476 91.3346067,57.2481408 91.3346067,51.4801174 C91.3346067,45.7120941 95.8630387,41.0361873 101.449143,41.0361873 C104.015276,40.992973 106.493266,42.0023642 108.33967,43.8429936 L111.015808,41.0797037 C108.49754,38.4466543 105.05396,36.9788382 101.470215,37.0109226 C96.3686129,36.8059148 91.5672274,39.4993451 88.9573832,44.0302381 C86.3475389,48.5611311 86.3475389,54.2032801 88.9573832,58.7341731 C91.5672274,63.2650661 96.3686129,65.9584964 101.470215,65.7534886 C105.119381,65.9237558 108.661525,64.4559961 111.184384,61.7282239 C113.392041,59.2236859 114.570737,55.9313231 114.471608,52.5462686 C114.478407,51.7216077 114.407838,50.8982052 114.260888,50.0875934 L101.470215,50.1963844 Z M196.94722,53.2425307 C195.822146,49.8247765 192.770607,47.4789021 189.27703,47.3460618 C186.947239,47.3413583 184.719473,48.3325945 183.122713,50.0844027 C181.525953,51.836211 180.702633,54.1923259 180.84825,56.5932916 C180.796499,59.0504353 181.714654,61.4236709 183.391744,63.1676892 C185.068835,64.9117074 187.360659,65.8765503 189.740613,65.8405213 C192.734639,65.8571859 195.536755,64.3205934 197.200083,61.7499821 L194.144651,59.5741633 C193.21695,61.1710884 191.544069,62.1463445 189.740613,62.1416294 C187.872777,62.2151397 186.151304,61.1020229 185.399791,59.3348232 L197.389731,54.2216491 L196.94722,53.2425307 Z M184.725489,56.3321933 C184.639203,54.972664 185.086506,53.6344935 185.966557,52.6193568 C186.846607,51.6042202 188.085328,50.9975679 189.403462,50.9361628 C190.792883,50.8416269 192.102919,51.6121517 192.73283,52.8943996 L184.725489,56.3321933 Z M174.990248,65.2965667 L178.930703,65.2965667 L178.930703,38.098832 L174.990248,38.098832 L174.990248,65.2965667 Z M168.542231,49.4130896 L168.394728,49.4130896 C167.193547,48.0263898 165.476383,47.2348338 163.674611,47.2372708 C158.891588,47.4767668 155.132753,51.5507872 155.132753,56.4953797 C155.132753,61.4399723 158.891588,65.5139926 163.674611,65.7534886 C165.482224,65.784872 167.210518,64.9881853 168.394728,63.5776698 L168.521159,63.5776698 L168.521159,64.9049193 C168.521159,68.4515039 166.6879,70.3444662 163.737827,70.3444662 C161.728201,70.2958963 159.94641,68.9977072 159.228429,67.0589799 L155.793702,68.5385366 C157.116349,71.8606006 160.259334,74.0212917 163.737827,73.9998417 C168.352584,73.9998417 172.166607,71.1930355 172.166607,64.3609646 L172.166607,47.8900165 L168.542231,47.8900165 L168.542231,49.4130896 Z M164.032834,62.206904 C161.215277,61.9505051 159.054325,59.5138823 159.054325,56.5932916 C159.054325,53.6727008 161.215277,51.2360781 164.032834,50.9796791 C165.394334,51.0518239 166.669959,51.6884959 167.570498,52.7453484 C168.471037,53.8022009 168.920205,55.1897076 168.816167,56.5932916 C168.932346,58.0033296 168.484615,59.4010359 167.577073,60.4614354 C166.669532,61.521835 165.38125,62.1525386 164.011762,62.206904 L164.032834,62.206904 Z M215.406248,38.098832 L205.987086,38.098832 L205.987086,65.2965667 L209.927541,65.2965667 L209.927541,54.9831857 L215.42732,54.9831857 C218.488408,55.2102624 221.415913,53.652692 223.013496,50.946983 C224.611079,48.2412741 224.611079,44.8407436 223.013496,42.1350346 C221.415913,39.4293257 218.488408,37.8717553 215.42732,38.098832 L215.406248,38.098832 Z M215.406248,51.1537446 L209.906469,51.1537446 L209.906469,41.8847567 L215.490536,41.8847567 C217.986826,41.8847567 220.010469,43.9743025 220.010469,46.5518879 C220.010469,49.1294733 217.986826,51.2190192 215.490536,51.2190192 L215.406248,51.1537446 Z M239.702206,47.2372708 C236.770493,47.0563275 234.014227,48.6887335 232.685247,51.3930847 L236.183191,52.8943996 C236.887849,51.5533733 238.292756,50.7683104 239.765422,50.8926464 C240.775881,50.7707888 241.791393,51.0731743 242.583855,51.7318818 C243.376318,52.3905894 243.879296,53.3503966 243.979812,54.3957146 L243.979812,54.678571 C242.714215,53.9866587 241.302815,53.6279229 239.870782,53.634178 C236.098903,53.634178 232.28488,55.8099968 232.28488,59.7482288 C232.360081,61.4447338 233.096657,63.0376958 234.327029,64.1647 C235.557401,65.2917041 237.17694,65.856911 238.817185,65.7317304 C240.838467,65.8816075 242.777803,64.8803611 243.874453,63.1207479 L244.000884,63.1207479 L244.000884,65.2965667 L247.793835,65.2965667 L247.793835,54.8308784 C247.793835,50.0658352 244.295892,47.3025454 239.807566,47.3025454 L239.702206,47.2372708 Z M239.217552,62.1416294 C237.932163,62.1416294 236.141047,61.4671256 236.141047,59.8352615 C236.141047,57.6594428 238.374674,56.9414226 240.355437,56.9414226 C241.607199,56.9095292 242.84431,57.2251219 243.937668,57.8552664 C243.6652,60.2909107 241.696716,62.1471572 239.322911,62.206904 L239.217552,62.1416294 Z M261.617034,47.8900165 L257.107637,59.6829542 L256.981205,59.6829542 L252.303233,47.8900165 L248.088843,47.8900165 L255.105802,64.3827228 L251.102131,73.5429198 L255.211162,73.5429198 L266,47.8900165 L261.617034,47.8900165 Z M226.195087,65.2965667 L230.135541,65.2965667 L230.135541,38.098832 L226.195087,38.098832 L226.195087,65.2965667 Z" id="Shape" fill="#FFFFFF"></path>
            <path d="M23.0043889,17.1480447 C22.2982239,17.9752092 21.9417966,19.0341233 22.0077612,20.1089385 L22.0077612,66.8910615 C21.9417966,67.9658767 22.2982239,69.0247908 23.0043889,69.8519553 L23.1560496,70 L50,43.8172386 L50,43.2039106 L23.1560496,17 L23.0043889,17.1480447 Z" id="Shape" fill="url(#linearGradient-1)"></path>
            <path d="M57.8866995,52 L49,43.3154206 L49,42.7056075 L57.8866995,34 L58.0817734,34.1051402 L68.7241379,39.9719626 C71.7586207,41.6331776 71.7586207,44.3668224 68.7241379,46.0490654 L58.1251232,51.8948598 L57.8866995,52 Z" id="Shape" fill="url(#linearGradient-2)"></path>
            <path d="M58.9784302,52.1840574 L49.8759736,43 L23,70.1169088 C24.2698525,71.2432015 26.1544304,71.2980517 27.4865189,70.2474878 L59,52.1840574" id="Shape" fill="url(#linearGradient-3)"></path>
            <path d="M59,34.8159426 L27.4865189,16.7525122 C26.1544304,15.7019483 24.2698525,15.7567985 23,16.8830912 L49.8975434,44 L59,34.8159426 Z" id="Shape" fill="url(#linearGradient-4)"></path>
            <path d="M58.7410072,51 L27.4676259,68.9655966 C26.187853,69.9310274 24.4308521,69.9310274 23.1510791,68.9655966 L23,69.118032 L23.1510791,69.2704674 C24.4284441,70.2431775 26.1902609,70.2431775 27.4676259,69.2704674 L59,51.1959883 L58.7410072,51 Z" id="Shape" fill="#000000" opacity="0.2"></path>
            <path d="M22.966485,69.6752205 C22.2869694,68.8283941 21.9439931,67.7443093 22.0074683,66.6439455 L22.0074683,66.9687249 C21.9439931,68.0690888 22.2869694,69.1531736 22.966485,70 L23.1124223,69.8484362 L22.966485,69.6752205 Z M67.9151811,45.8147554 L57.4910864,51.9422614 L57.6787201,52.1371291 L67.9151811,46.1178829 C69.0974196,45.5411031 69.8925659,44.3519479 70,43 C69.7623921,44.2229851 68.9924194,45.2625405 67.9151811,45.8147554 Z" id="Shape" fill="#000000" opacity="0.12"></path>
            <path d="M27.2939644,17.0323958 L67.915762,41.1681837 C68.9927002,41.7237457 69.7624583,42.7696021 70,44 C69.8925959,42.6398576 69.0976711,41.4434947 67.915762,40.8632189 L27.2939644,16.727431 C24.3760313,15.006558 22,16.4442493 22,19.9295617 L22,20.2563097 C22.0625271,16.7492142 24.3968736,15.3115228 27.2939644,17.0323958 L27.2939644,17.0323958 Z" id="Shape" fill="#FFFFFF" opacity="0.25"></path>
        </g>
    </g>
</svg>